{"title":"UFC 109 Relentless [SatRiP-XviD-Mp3-ENG][TNTVillage.Scambioetico","uid":5343267,"size":1427490816,"categoryP":"video","categoryS":"tv_shows","magnet":"?xt=urn:btih:e2138f6c9603fee76564193a0ac924e61aaf3831&amp;dn=UFC+109+Relentless+%5BSatRiP-XviD-Mp3-ENG%5D%5BTNTVillage.Scambioetico&amp;tr=udp%3A%2F%2Ftracker.openbittorrent.com%3A80&amp;tr=udp%3A%2F%2Fopen.demonii.com%3A1337&amp;tr=udp%3A%2F%2Ftracker.coppersurfer.tk%3A6969&amp;tr=udp%3A%2F%2Fexodus.desync.com%3A6969","seeders":1,"leechers":0,"uploader":"maxneb","files":1,"time":1265553451,"description":"UFC 109 Relentless [SatRiP-XviD-Mp3-ENG][TNTVillage.Scambioetico]\n\n\n\nGeneral\nComplete name                    : C:UFC.109.Relentless.DSR.XviD-XWT.avi\nFormat                           : AVI\nFormat/Info                      : Audio Video Interleave\nFile size                        : 1.33 GiB\nDuration                         : 2h 43mn\nOverall bit rate                 : 1 164 Kbps\n\nVideo\nFormat                           : MPEG-4 Visual\nFormat profile                   : Streaming Video@L1\nFormat settings, BVOP            : Yes\nFormat settings, QPel            : No\nFormat settings, GMC             : No warppoints\nFormat settings, Matrix          : Default\nCodec ID                         : XVID\nCodec ID/Hint                    : XviD\nDuration                         : 2h 43mn\nBit rate                         : 1 023 Kbps\nWidth                            : 640 pixels\nHeight                           : 368 pixels\nDisplay aspect ratio             : 16/9\nFrame rate                       : 25.000 fps\nResolution                       : 24 bits\nColorimetry                      : 4:2:0\nScan type                        : Progressive\nBits/(Pixel*Frame)               : 0.174\nStream size                      : 1.17 GiB (88%)\nWriting library                  : XviD 1.1.2 (UTC 2006-11-01)\n\nAudio\nFormat                           : MPEG Audio\nFormat version                   : Version 1\nFormat profile                   : Layer 3\nCodec ID                         : 55\nCodec ID/Hint                    : MP3\nDuration                         : 2h 43mn\nBit rate mode                    : Constant\nBit rate                         : 128 Kbps\nChannel(s)                       : 2 channels\nSampling rate                    : 44.1 KHz\nResolution                       : 16 bits\nStream size                      : 150 MiB (11%)\nAlignment                        : Aligned on interleaves\nInterleave, duration             : 26 ms (0.65 video frame)\nInterleave, preload duration     : 809 ms\n\n\n &lt;a href=&quot;\nhttp://uptiki.com/images/zigpvize3mpym5rmbuj.png&quot; rel=&quot;nofollow&quot; target=&quot;_NEW&quot;&gt;\nhttp://uptiki.com/images/zigpvize3mpym5rmbuj.png&lt;/a&gt;\n\n &lt;a href=&quot;\nhttp://uptiki.com/images/qlrb8ebvmtmkk1d5vf.png&quot; rel=&quot;nofollow&quot; target=&quot;_NEW&quot;&gt;\nhttp://uptiki.com/images/qlrb8ebvmtmkk1d5vf.png&lt;/a&gt;\n\n &lt;a href=&quot;\nhttp://uptiki.com/images/1n9v2tm94ee18hgeyhrg.png&quot; rel=&quot;nofollow&quot; target=&quot;_NEW&quot;&gt;\nhttp://uptiki.com/images/1n9v2tm94ee18hgeyhrg.png&lt;/a&gt;\n\n &lt;a href=&quot;\nhttp://uptiki.com/images/ce6bafhnarz0u9we2o3q.png&quot; rel=&quot;nofollow&quot; target=&quot;_NEW&quot;&gt;\nhttp://uptiki.com/images/ce6bafhnarz0u9we2o3q.png&lt;/a&gt;\n\n &lt;a href=&quot;\nhttp://uptiki.com/images/lhnqh8u74ox2dcewbw.png&quot; rel=&quot;nofollow&quot; target=&quot;_NEW&quot;&gt;\nhttp://uptiki.com/images/lhnqh8u74ox2dcewbw.png&lt;/a&gt;\n\n\n &lt;a href=&quot;\nhttp://uptiki.com/images/8lxymb0b72a1olvbh156.png&quot; rel=&quot;nofollow&quot; target=&quot;_NEW&quot;&gt;\nhttp://uptiki.com/images/8lxymb0b72a1olvbh156.png&lt;/a&gt;","torrent":{"xt":"urn:btih:e2138f6c9603fee76564193a0ac924e61aaf3831","amp;dn":"UFC+109+Relentless+%5BSatRiP-XviD-Mp3-ENG%5D%5BTNTVillage.Scambioetico","amp;tr":["udp%3A%2F%2Ftracker.openbittorrent.com%3A80","udp%3A%2F%2Fopen.demonii.com%3A1337","udp%3A%2F%2Ftracker.coppersurfer.tk%3A6969","udp%3A%2F%2Fexodus.desync.com%3A6969"],"infoHash":"e2138f6c9603fee76564193a0ac924e61aaf3831","infoHashBuffer":{"type":"Buffer","data":[226,19,143,108,150,3,254,231,101,100,25,58,10,201,36,230,26,175,56,49]},"announce":[],"urlList":[]}}